<?xml version="1.0" encoding="utf-8"?>
<svg version="1.1" xmlns="http://www.w3.org/2000/svg" xmlns:xlink="http://www.w3.org/1999/xlink" x="0px" y="0px" viewBox="0 0 1000 1000" enable-background="new 0 0 1000 1000" xml:space="preserve">
<g><g><g><path d="M913.8,281.8c0.9-44.9-9-90.4-17-135.1c-2.8-15.4-8.3-30.3-13.9-44.9c-4.1-11-16.4-18-27.7-15.6c-7.3,1.6-13.9,3.1-20.2,5.2c-66.6,21.9-128.4,54-187.6,91.2c-8,5-19.5,6.8-29.2,6.1c-23-1.7-45.8-7.4-68.7-8.5c-56.9-2.7-113.7-1-170.1,8.9c-7.8,1.4-18.2,0-24.7-4.2c-64.6-41.8-131.9-77.6-207.6-97.7c-11.4-3-23-1.4-25.9,3.1c-1.8,2.8-3.3,5.6-4.2,8.7c-8.2,28.7-17.9,57.3-22.6,86.6c-5.7,35-11.1,71.1-8.4,106c1.7,22-4.4,35.5-16.4,50.9C29.3,394.3,11.2,453.8,10.1,519c-1,55.8,6.4,110.1,23.4,163.5c26,81.7,76.3,143,151.9,182.9c62.2,32.8,130,45.4,199.4,47.9c62.5,2.2,125.2,0.3,187.7,0.7c62.7,0.4,124.6-5.2,184.6-24.8c60.1-19.6,112-51.1,152.4-100.8c58.3-71.7,76.4-156.2,80.1-245.7c2.9-68.4-11.1-132.7-51.1-188.7C922.3,331.3,913.2,311.8,913.8,281.8z M793,805.9c-26.9,23.3-59.8,34.3-93.5,42.3C633.4,864,566.2,867.9,498.7,865c-66.7,2.9-132.7-1.3-197.6-16.5c-47.9-11.3-91.6-30.2-122.1-71.3c-48.5-65.4-60.9-189.9,19.2-257.8c20.4-17.3,43.2-28.3,70.1-30c29.7-1.9,59.4-5.6,89.1-5.2c74.9,0.9,149.8,4.6,224.7,5.2c34.2,0.2,68.6-7.7,102.6-5.7c30.9,1.9,63.3,7.5,91.3,20c46.7,20.7,71.8,62.7,79.4,111.8C866.8,688.4,851.9,754.9,793,805.9z"/><ellipse cx="670.9" cy="663.4" rx="71.4" ry="95.4"/><ellipse cx="330.3" cy="663.4" rx="71.4" ry="95.4"/></g></g><g></g><g></g><g></g><g></g><g></g><g></g><g></g><g></g><g></g><g></g><g></g><g></g><g></g><g></g><g></g></g>
</svg>